<svg xmlns="http://www.w3.org/2000/svg" viewBox="0 0 1920 1080"><defs><linearGradient id="sky" x1="0%" y1="0%" x2="0%" y2="100%"><stop offset="0%" style="stop-color:#1e3c72"/><stop offset="100%" style="stop-color:#2a5298"/></linearGradient><linearGradient id="water" x1="0%" y1="0%" x2="0%" y2="100%"><stop offset="0%" style="stop-color:#2C5364"/><stop offset="100%" style="stop-color:#203A43"/></linearGradient><linearGradient id="mountain" x1="0%" y1="0%" x2="0%" y2="100%"><stop offset="0%" style="stop-color:#4B79A1"/><stop offset="100%" style="stop-color:#283E51"/></linearGradient></defs><rect width="1920" height="1080" fill="url(#sky)"/><path d="M0,400 L400,200 L800,500 L1200,300 L1600,450 L1920,350 L1920,1080 L0,1080 Z" fill="url(#mountain)" opacity="0.8"/><path d="M0,500 Q480,400 960,500 T1920,500 L1920,1080 L0,1080 Z" fill="url(#water)" opacity="0.6"/><g transform="translate(200,200)"><path d="M0,0 L30,-45 L60,0 Z" fill="#228B22" opacity="0.7"/></g><g transform="translate(500,150)"><path d="M0,0 L40,-60 L80,0 Z" fill="#228B22" opacity="0.7"/></g><g transform="translate(1200,180)"><path d="M0,0 L35,-50 L70,0 Z" fill="#228B22" opacity="0.7"/></g><g transform="translate(1600,220)"><path d="M0,0 L25,-35 L50,0 Z" fill="#228B22" opacity="0.7"/></g><circle cx="1600" cy="150" r="60" fill="#FDB813" opacity="0.8"/><path d="M100,600 Q150,550 200,600 T300,600" fill="none" stroke="#fff" stroke-width="2" opacity="0.3"/><path d="M800,650 Q850,600 900,650 T1000,650" fill="none" stroke="#fff" stroke-width="2" opacity="0.3"/><path d="M1400,620 Q1450,570 1500,620 T1600,620" fill="none" stroke="#fff" stroke-width="2" opacity="0.3"/></svg>