<svg xmlns="http://www.w3.org/2000/svg" viewBox="0 0 800 400"><defs><linearGradient id="ground" x1="0%" y1="0%" x2="0%" y2="100%"><stop offset="0%" style="stop-color:#8B4513"/><stop offset="100%" style="stop-color:#654321"/></linearGradient><linearGradient id="sky" x1="0%" y1="0%" x2="0%" y2="100%"><stop offset="0%" style="stop-color:#87CEEB"/><stop offset="100%" style="stop-color:#4682B4"/></linearGradient></defs><rect width="800" height="400" fill="url(#sky)"/><path d="M0,150 L200,200 L400,150 L600,180 L800,150 L800,400 L0,400 Z" fill="url(#ground)"/><g transform="translate(100,100)"><path d="M0,0 L20,-30 L40,0 Z" fill="#228B22"/><rect x="15" y="0" width="10" height="20" fill="#654321"/></g><g transform="translate(300,80)"><path d="M0,0 L30,-45 L60,0 Z" fill="#228B22"/><rect x="25" y="0" width="10" height="30" fill="#654321"/></g><g transform="translate(500,120)"><path d="M0,0 L25,-35 L50,0 Z" fill="#228B22"/><rect x="20" y="0" width="10" height="25" fill="#654321"/></g><g transform="translate(700,90)"><path d="M0,0 L15,-25 L30,0 Z" fill="#228B22"/><rect x="12" y="0" width="6" height="15" fill="#654321"/></g><circle cx="600" cy="80" r="30" fill="#FDB813" opacity="0.8"/><path d="M200,300 Q220,280 240,300" stroke="#90a955" fill="none" stroke-width="2"/><path d="M400,320 Q420,300 440,320" stroke="#90a955" fill="none" stroke-width="2"/><path d="M600,280 Q620,260 640,280" stroke="#90a955" fill="none" stroke-width="2"/></svg>