<?xml version="1.0" encoding="UTF-8"?>
<svg xmlns="http://www.w3.org/2000/svg" viewBox="0 0 500 600">
    <!-- Shield Background -->
    <path d="M 250 50 L 450 150 L 450 450 L 250 550 L 50 450 L 50 150 Z" fill="#ce1126" stroke="#000000" stroke-width="2"/>
    
    <!-- Rising Sun -->
    <circle cx="250" cy="200" r="60" fill="#000000"/>
    <path d="M 250 140 L 250 50" stroke="#000000" stroke-width="8"/>
    <path d="M 190 170 L 120 100" stroke="#000000" stroke-width="8"/>
    <path d="M 310 170 L 380 100" stroke="#000000" stroke-width="8"/>
    
    <!-- Lion Passant -->
    <path d="M 150 300 Q 200 300 250 300 Q 300 300 350 300" fill="none" stroke="#000000" stroke-width="4"/>
    <path d="M 200 250 Q 250 250 300 250 Q 350 250 400 250" fill="none" stroke="#000000" stroke-width="4"/>
    
    <!-- Waves representing Lake Malawi -->
    <path d="M 100 400 Q 150 380 200 400 Q 250 420 300 400 Q 350 380 400 400" fill="none" stroke="#000000" stroke-width="4"/>
    <path d="M 100 430 Q 150 410 200 430 Q 250 450 300 430 Q 350 410 400 430" fill="none" stroke="#000000" stroke-width="4"/>
    
    <!-- Motto Banner -->
    <path d="M 150 500 Q 250 480 350 500" fill="none" stroke="#000000" stroke-width="2"/>
    <text x="250" y="495" text-anchor="middle" font-family="Arial" font-size="16" fill="#000000">UNITY AND FREEDOM</text>
</svg>