<svg xmlns="http://www.w3.org/2000/svg" viewBox="0 0 800 400"><defs><linearGradient id="riverwater" x1="0%" y1="0%" x2="100%" y2="0%"><stop offset="0%" style="stop-color:#2c5364"/><stop offset="50%" style="stop-color:#203a43"/><stop offset="100%" style="stop-color:#2c5364"/></linearGradient><linearGradient id="riverbank" x1="0%" y1="0%" x2="0%" y2="100%"><stop offset="0%" style="stop-color:#90a955"/><stop offset="100%" style="stop-color:#4a5721"/></linearGradient></defs><rect width="800" height="400" fill="#f0f4f8"/><path d="M0,100 C200,80 400,150 800,100 L800,300 C600,320 400,250 0,300 Z" fill="url(#riverwater)"/><path d="M0,0 L800,0 L800,100 C600,80 400,150 0,100 Z" fill="url(#riverbank)"/><path d="M0,300 C200,320 400,250 800,300 L800,400 L0,400 Z" fill="url(#riverbank)"/><g transform="translate(200,150)"><circle r="3" fill="#fff" opacity="0.6"/></g><g transform="translate(400,200)"><circle r="2" fill="#fff" opacity="0.5"/></g><g transform="translate(600,180)"><circle r="3" fill="#fff" opacity="0.7"/></g><path d="M100,50 Q120,30 140,50" stroke="#90a955" fill="none" stroke-width="2"/><path d="M500,350 Q520,330 540,350" stroke="#90a955" fill="none" stroke-width="2"/></svg>